<svg xmlns="http://www.w3.org/2000/svg" xmlns:xlink="http://www.w3.org/1999/xlink" id="processonSvg1000" viewBox="59.0 -54.0 572.0 451.0" width="572.0" height="451.0"><defs id="ProcessOnDefs1001"><marker id="ProcessOnMarker1033" markerUnits="userSpaceOnUse" orient="auto" markerWidth="16.23606797749979" markerHeight="10.550836550532098" viewBox="-1.0 -1.3763819204711736 16.23606797749979 10.550836550532098" refX="-1.0" refY="3.8990363547948754"><path id="ProcessOnPath1034" d="M12.0 3.8990363547948754L0.0 7.798072709589751V0.0Z" stroke="#323232" stroke-width="2.0" fill="#323232" transform="matrix(1.0,0.0,0.0,1.0,0.0,0.0)"/></marker><marker id="ProcessOnMarker1037" markerUnits="userSpaceOnUse" orient="auto" markerWidth="16.23606797749979" markerHeight="10.550836550532098" viewBox="-1.0 -1.3763819204711736 16.23606797749979 10.550836550532098" refX="-1.0" refY="3.8990363547948754"><path id="ProcessOnPath1038" d="M12.0 3.8990363547948754L0.0 7.798072709589751V0.0Z" stroke="#323232" stroke-width="2.0" fill="#323232" transform="matrix(1.0,0.0,0.0,1.0,0.0,0.0)"/></marker><marker id="ProcessOnMarker1041" markerUnits="userSpaceOnUse" orient="auto" markerWidth="16.23606797749979" markerHeight="10.550836550532098" viewBox="-1.0 -1.3763819204711736 16.23606797749979 10.550836550532098" refX="-1.0" refY="3.8990363547948754"><path id="ProcessOnPath1042" d="M12.0 3.8990363547948754L0.0 7.798072709589751V0.0Z" stroke="#323232" stroke-width="2.0" fill="#323232" transform="matrix(1.0,0.0,0.0,1.0,0.0,0.0)"/></marker><marker id="ProcessOnMarker1045" markerUnits="userSpaceOnUse" orient="auto" markerWidth="16.23606797749979" markerHeight="10.550836550532098" viewBox="-1.0 -1.3763819204711736 16.23606797749979 10.550836550532098" refX="-1.0" refY="3.8990363547948754"><path id="ProcessOnPath1046" d="M12.0 3.8990363547948754L0.0 7.798072709589751V0.0Z" stroke="#323232" stroke-width="2.0" fill="#323232" transform="matrix(1.0,0.0,0.0,1.0,0.0,0.0)"/></marker><marker id="ProcessOnMarker1052" markerUnits="userSpaceOnUse" orient="auto" markerWidth="16.23606797749979" markerHeight="10.550836550532098" viewBox="-1.0 -1.3763819204711736 16.23606797749979 10.550836550532098" refX="-1.0" refY="3.8990363547948754"><path id="ProcessOnPath1053" d="M12.0 3.8990363547948754L0.0 7.798072709589751V0.0Z" stroke="#323232" stroke-width="2.0" fill="#323232" transform="matrix(1.0,0.0,0.0,1.0,0.0,0.0)"/></marker><marker id="ProcessOnMarker1059" markerUnits="userSpaceOnUse" orient="auto" markerWidth="16.23606797749979" markerHeight="10.550836550532098" viewBox="-1.0 -1.3763819204711736 16.23606797749979 10.550836550532098" refX="-1.0" refY="3.8990363547948754"><path id="ProcessOnPath1060" d="M12.0 3.8990363547948754L0.0 7.798072709589751V0.0Z" stroke="#323232" stroke-width="2.0" fill="#323232" transform="matrix(1.0,0.0,0.0,1.0,0.0,0.0)"/></marker></defs><g id="ProcessOnG1002"><path id="ProcessOnPath1003" d="M59.0 -54.0H631.0V397.0H59.0V-54.0Z" fill="none"/><g id="ProcessOnG1004"><g id="ProcessOnG1005" transform="matrix(1.0,0.0,0.0,1.0,79.0,115.0)" opacity="1.0"><path id="ProcessOnPath1006" d="M0.0 46.5C0.0 -15.5 95.0 -15.5 95.0 46.5C95.0 108.5 0.0 108.5 0.0 46.5Z" stroke="#323232" stroke-width="2.0" stroke-dasharray="none" opacity="1.0" fill="#ffffff"/><g id="ProcessOnG1007" transform="matrix(1.0,0.0,0.0,1.0,10.0,30.25)"><text id="ProcessOnText1008" fill="#000000" font-size="13" x="36.5" y="13.325" font-family="微软雅黑" font-weight="normal" font-style="normal" text-decoration="none" family="微软雅黑" text-anchor="middle" size="13">初始状态</text><text id="ProcessOnText1009" fill="#000000" font-size="13" x="36.5" y="29.575" font-family="微软雅黑" font-weight="normal" font-style="normal" text-decoration="none" family="微软雅黑" text-anchor="middle" size="13">state = 0</text></g></g><g id="ProcessOnG1010" transform="matrix(1.0,0.0,0.0,1.0,283.0,117.0)" opacity="1.0"><path id="ProcessOnPath1011" d="M0.0 44.5C0.0 -14.833333333333334 94.0 -14.833333333333334 94.0 44.5C94.0 103.83333333333333 0.0 103.83333333333333 0.0 44.5Z" stroke="#323232" stroke-width="2.0" stroke-dasharray="none" opacity="1.0" fill="#ffffff"/><g id="ProcessOnG1012" transform="matrix(1.0,0.0,0.0,1.0,10.0,28.25)"><text id="ProcessOnText1013" fill="#000000" font-size="13" x="36.0" y="13.325" font-family="微软雅黑" font-weight="normal" font-style="normal" text-decoration="none" family="微软雅黑" text-anchor="middle" size="13">全发一次</text><text id="ProcessOnText1014" fill="#000000" font-size="13" x="36.0" y="29.575" font-family="微软雅黑" font-weight="normal" font-style="normal" text-decoration="none" family="微软雅黑" text-anchor="middle" size="13">state = 1</text></g></g><g id="ProcessOnG1015" transform="matrix(1.0,0.0,0.0,1.0,500.0,104.5)" opacity="1.0"><path id="ProcessOnPath1016" d="M0.0 57.0C0.0 -19.0 111.0 -19.0 111.0 57.0C111.0 133.0 0.0 133.0 0.0 57.0Z" stroke="#323232" stroke-width="2.0" stroke-dasharray="none" opacity="1.0" fill="#ffffff"/><g id="ProcessOnG1017" transform="matrix(1.0,0.0,0.0,1.0,10.0,24.5)"><text id="ProcessOnText1018" fill="#000000" font-size="13" x="44.5" y="13.325" font-family="微软雅黑" font-weight="normal" font-style="normal" text-decoration="none" family="微软雅黑" text-anchor="middle" size="13">5~15min有报</text><text id="ProcessOnText1019" fill="#000000" font-size="13" x="44.5" y="29.575" font-family="微软雅黑" font-weight="normal" font-style="normal" text-decoration="none" family="微软雅黑" text-anchor="middle" size="13">警，第一、第</text><text id="ProcessOnText1020" fill="#000000" font-size="13" x="44.5" y="45.825" font-family="微软雅黑" font-weight="normal" font-style="normal" text-decoration="none" family="微软雅黑" text-anchor="middle" size="13">二联系人发</text><text id="ProcessOnText1021" fill="#000000" font-size="13" x="44.5" y="62.075" font-family="微软雅黑" font-weight="normal" font-style="normal" text-decoration="none" family="微软雅黑" text-anchor="middle" size="13">state = 3</text></g></g><g id="ProcessOnG1022" transform="matrix(1.0,0.0,0.0,1.0,500.0,263.0)" opacity="1.0"><path id="ProcessOnPath1023" d="M0.0 57.0C0.0 -19.0 111.0 -19.0 111.0 57.0C111.0 133.0 0.0 133.0 0.0 57.0Z" stroke="#323232" stroke-width="2.0" stroke-dasharray="none" opacity="1.0" fill="#ffffff"/><g id="ProcessOnG1024" transform="matrix(1.0,0.0,0.0,1.0,10.0,8.25)"><text id="ProcessOnText1025" fill="#000000" font-size="13" x="44.5" y="13.325" font-family="微软雅黑" font-weight="normal" font-style="normal" text-decoration="none" family="微软雅黑" text-anchor="middle" size="13">大于15min有</text><text id="ProcessOnText1026" fill="#000000" font-size="13" x="44.5" y="29.575" font-family="微软雅黑" font-weight="normal" font-style="normal" text-decoration="none" family="微软雅黑" text-anchor="middle" size="13">报警，第一、</text><text id="ProcessOnText1027" fill="#000000" font-size="13" x="44.5" y="45.825" font-family="微软雅黑" font-weight="normal" font-style="normal" text-decoration="none" family="微软雅黑" text-anchor="middle" size="13">第二联系人、</text><text id="ProcessOnText1028" fill="#000000" font-size="13" x="44.5" y="62.075" font-family="微软雅黑" font-weight="normal" font-style="normal" text-decoration="none" family="微软雅黑" text-anchor="middle" size="13">所有管理员全</text><text id="ProcessOnText1029" fill="#000000" font-size="13" x="44.5" y="78.325" font-family="微软雅黑" font-weight="normal" font-style="normal" text-decoration="none" family="微软雅黑" text-anchor="middle" size="13">发</text><text id="ProcessOnText1030" fill="#000000" font-size="13" x="44.5" y="94.575" font-family="微软雅黑" font-weight="normal" font-style="normal" text-decoration="none" family="微软雅黑" text-anchor="middle" size="13">state = 4</text></g></g><g id="ProcessOnG1031"><path id="ProcessOnPath1032" d="M174.0 161.5L228.5 161.5L228.5 161.5L267.7639320225002 161.5" stroke="#323232" stroke-width="2.0" stroke-dasharray="none" fill="none" marker-end="url(#ProcessOnMarker1033)"/></g><g id="ProcessOnG1035"><path id="ProcessOnPath1036" d="M377.0 161.5L438.5 161.5L438.5 161.5L484.7639320225002 161.5" stroke="#323232" stroke-width="2.0" stroke-dasharray="none" fill="none" marker-end="url(#ProcessOnMarker1037)"/></g><g id="ProcessOnG1039"><path id="ProcessOnPath1040" d="M555.5 218.5L555.5 240.75L555.5 240.75L555.5 247.7639320225002" stroke="#323232" stroke-width="2.0" stroke-dasharray="none" fill="none" marker-end="url(#ProcessOnMarker1041)"/></g><g id="ProcessOnG1043"><path id="ProcessOnPath1044" d="M330.0 117.0C346.0 81.0 115.0 35.0 124.33209951152284 99.91895312363711" stroke="#323232" stroke-width="2.0" stroke-dasharray="2.0 3.0" fill="none" marker-end="url(#ProcessOnMarker1045)"/><g id="ProcessOnG1047" transform="matrix(1.0,0.0,0.0,1.0,229.66651243894034,59.364869140454644)"><path id="ProcessOnPath1048" d="M0 0H36.0V22.5H0Z" fill="#fff" transform="matrix(1.0,0.0,0.0,1.0,-18.0,0.0)"/><text id="ProcessOnText1049" fill="#000000" font-size="18" x="0.0" y="18.45" font-family="微软雅黑" font-weight="normal" font-style="normal" text-decoration="none" family="微软雅黑" text-anchor="middle" size="18">处置</text></g></g><g id="ProcessOnG1050"><path id="ProcessOnPath1051" d="M500.0 320.0C344.02756653818597 320.0 135.0 343.0 127.45741210985258 223.2059570388352" stroke="#323232" stroke-width="2.0" stroke-dasharray="2.0 3.0" fill="none" marker-end="url(#ProcessOnMarker1052)"/><g id="ProcessOnG1054" transform="matrix(1.0,0.0,0.0,1.0,258.0675139655513,305.2757446298544)"><path id="ProcessOnPath1055" d="M0 0H36.0V22.5H0Z" fill="#fff" transform="matrix(1.0,0.0,0.0,1.0,-18.0,0.0)"/><text id="ProcessOnText1056" fill="#000000" font-size="18" x="0.0" y="18.45" font-family="微软雅黑" font-weight="normal" font-style="normal" text-decoration="none" family="微软雅黑" text-anchor="middle" size="18">处置</text></g></g><g id="ProcessOnG1057"><path id="ProcessOnPath1058" d="M555.5 104.5C582.0 101.0 145.0 -34.0 128.3773116117457 99.88003080269675" stroke="#323232" stroke-width="2.0" stroke-dasharray="2.0 3.0" fill="none" marker-end="url(#ProcessOnMarker1059)"/><g id="ProcessOnG1061" transform="matrix(1.0,0.0,0.0,1.0,358.10966395146824,39.422503850337094)"><path id="ProcessOnPath1062" d="M0 0H36.0V22.5H0Z" fill="#fff" transform="matrix(1.0,0.0,0.0,1.0,-18.0,0.0)"/><text id="ProcessOnText1063" fill="#000000" font-size="18" x="0.0" y="18.45" font-family="微软雅黑" font-weight="normal" font-style="normal" text-decoration="none" family="微软雅黑" text-anchor="middle" size="18">处置</text></g></g></g></g></svg>